<?xml version="1.0" encoding="UTF-8"?>
<svg id="Layer_2" data-name="Layer 2" xmlns="http://www.w3.org/2000/svg" viewBox="0 0 447.27 103.13">
  <defs>
    <style>
      .cls-1 {
        fill: #58595b;
      }

      .cls-1, .cls-2 {
        stroke-width: 0px;
      }

      .cls-2 {
        fill: #1c75bc;
      }
    </style>
  </defs>
  <g id="Layer_1-2" data-name="Layer 1">
    <g>
      <g>
        <path class="cls-1" d="M81.8,35.31h8.46v5.64h.23c.68-.99,1.41-1.91,2.2-2.74.78-.83,1.66-1.54,2.62-2.11.97-.57,2.08-1.03,3.33-1.37s2.69-.51,4.31-.51c2.45,0,4.74.55,6.85,1.65,2.12,1.1,3.62,2.79,4.5,5.09,1.51-2.09,3.26-3.73,5.25-4.93s4.46-1.8,7.44-1.8c4.28,0,7.61,1.04,9.99,3.13,2.37,2.09,3.56,5.59,3.56,10.5v27.96h-8.93v-23.65c0-1.62-.05-3.09-.16-4.43-.11-1.33-.4-2.48-.9-3.45-.49-.97-1.24-1.71-2.23-2.23-.99-.52-2.35-.78-4.07-.78-3.03,0-5.22.94-6.58,2.82-1.36,1.88-2.04,4.54-2.04,7.99v23.73h-8.93v-26c0-2.82-.51-4.95-1.53-6.38-1.02-1.44-2.89-2.15-5.6-2.15-1.15,0-2.26.24-3.33.71s-2.01,1.15-2.82,2.04c-.81.89-1.46,1.99-1.96,3.29-.5,1.31-.74,2.79-.74,4.47v24.05h-8.93v-40.5Z"/>
        <path class="cls-1" d="M146.88,19.88h8.93v8.46h-8.93v-8.46ZM146.88,35.31h8.93v40.5h-8.93v-40.5Z"/>
        <path class="cls-1" d="M162.15,35.31h8.46v5.95l.16.16c1.36-2.24,3.13-4.01,5.33-5.29,2.19-1.28,4.62-1.92,7.28-1.92,4.44,0,7.94,1.15,10.5,3.45,2.56,2.3,3.84,5.75,3.84,10.34v27.81h-8.93v-25.46c-.11-3.18-.78-5.49-2.04-6.93-1.25-1.44-3.21-2.15-5.87-2.15-1.52,0-2.87.27-4.07.82-1.2.55-2.22,1.31-3.06,2.27-.84.97-1.49,2.1-1.96,3.41-.47,1.31-.71,2.69-.71,4.15v23.89h-8.93v-40.5Z"/>
        <path class="cls-1" d="M242.06,75.81h-8.46v-5.48h-.16c-1.2,2.35-2.95,4.03-5.25,5.05-2.3,1.02-4.72,1.53-7.28,1.53-3.18,0-5.97-.56-8.34-1.68-2.38-1.12-4.35-2.65-5.91-4.58s-2.74-4.22-3.52-6.85c-.78-2.64-1.18-5.47-1.18-8.5,0-3.65.5-6.81,1.49-9.48.99-2.66,2.31-4.86,3.95-6.58,1.65-1.72,3.52-2.99,5.64-3.8,2.11-.81,4.27-1.21,6.46-1.21,1.25,0,2.53.12,3.84.35,1.31.23,2.56.61,3.76,1.14,1.2.52,2.31,1.19,3.33,2,1.02.81,1.87,1.76,2.55,2.86h.16v-20.68h8.93v55.93ZM210.89,55.99c0,1.72.22,3.42.66,5.09.44,1.67,1.12,3.16,2.04,4.46.91,1.31,2.08,2.35,3.49,3.13,1.41.78,3.08,1.18,5.01,1.18s3.69-.42,5.13-1.25c1.43-.83,2.61-1.93,3.52-3.29s1.59-2.88,2.04-4.58c.44-1.7.66-3.43.66-5.21,0-4.49-1.01-7.99-3.02-10.5-2.01-2.51-4.74-3.76-8.18-3.76-2.09,0-3.85.43-5.29,1.29-1.44.86-2.61,1.99-3.53,3.37-.91,1.38-1.57,2.95-1.96,4.7-.39,1.75-.59,3.54-.59,5.36Z"/>
        <path class="cls-2" d="M255.31,62.8c.26,2.61,1.25,4.44,2.98,5.48,1.72,1.05,3.79,1.57,6.19,1.57.83,0,1.79-.07,2.86-.2,1.07-.13,2.08-.38,3.02-.74.94-.36,1.71-.9,2.31-1.61.6-.7.87-1.63.82-2.78-.05-1.15-.47-2.09-1.25-2.82-.78-.73-1.79-1.32-3.02-1.76-1.23-.44-2.63-.82-4.19-1.14s-3.16-.65-4.78-1.02c-1.67-.36-3.28-.81-4.82-1.33s-2.92-1.23-4.15-2.11-2.21-2.02-2.94-3.41-1.1-3.09-1.1-5.13c0-2.19.54-4.03,1.6-5.52,1.07-1.49,2.43-2.69,4.07-3.6,1.65-.91,3.47-1.55,5.48-1.92,2.01-.36,3.93-.55,5.76-.55,2.09,0,4.08.22,5.99.67,1.91.44,3.63,1.16,5.17,2.15,1.54.99,2.82,2.29,3.84,3.88,1.02,1.59,1.66,3.51,1.92,5.76h-9.32c-.42-2.14-1.4-3.58-2.94-4.31-1.54-.73-3.3-1.1-5.29-1.1-.63,0-1.37.05-2.23.16-.86.11-1.67.3-2.43.59-.76.29-1.4.7-1.92,1.25-.52.55-.78,1.27-.78,2.15,0,1.1.38,1.98,1.14,2.66.76.68,1.75,1.24,2.98,1.68s2.63.82,4.19,1.14,3.18.65,4.86,1.02c1.62.37,3.21.81,4.78,1.33,1.57.52,2.96,1.23,4.19,2.11,1.23.89,2.22,2.01,2.97,3.37.76,1.36,1.14,3.03,1.14,5.01,0,2.4-.55,4.44-1.64,6.11-1.1,1.67-2.52,3.03-4.27,4.07s-3.69,1.8-5.83,2.27c-2.14.47-4.26.7-6.35.7-2.56,0-4.92-.29-7.09-.86-2.17-.58-4.05-1.45-5.64-2.62-1.59-1.18-2.85-2.64-3.76-4.39-.92-1.75-1.4-3.82-1.45-6.23h8.93Z"/>
        <path class="cls-2" d="M282.35,35.31h6.74v-12.14h8.93v12.14h8.07v6.66h-8.07v21.62c0,.94.04,1.75.12,2.43.08.68.26,1.25.55,1.72s.72.82,1.29,1.06c.57.24,1.36.35,2.35.35.63,0,1.25-.01,1.88-.04.63-.03,1.25-.12,1.88-.27v6.89c-.99.1-1.96.21-2.9.31-.94.1-1.91.16-2.9.16-2.35,0-4.24-.22-5.68-.67-1.44-.44-2.56-1.1-3.37-1.96-.81-.86-1.36-1.95-1.65-3.25-.29-1.3-.46-2.79-.51-4.47v-23.89h-6.74v-6.66Z"/>
        <path class="cls-2" d="M309.3,35.31h8.38v7.83h.16c.26-1.1.77-2.17,1.53-3.21.76-1.04,1.67-2,2.74-2.86,1.07-.86,2.26-1.55,3.56-2.08,1.31-.52,2.64-.78,4-.78,1.04,0,1.76.03,2.15.08.39.05.8.11,1.21.16v8.62c-.63-.1-1.27-.2-1.92-.27-.65-.08-1.29-.12-1.92-.12-1.51,0-2.94.3-4.27.9-1.33.6-2.49,1.49-3.49,2.66-.99,1.17-1.77,2.62-2.35,4.35-.58,1.72-.86,3.71-.86,5.95v19.27h-8.93v-40.5Z"/>
        <path class="cls-2" d="M334.76,19.88h8.93v8.46h-8.93v-8.46ZM334.76,35.31h8.93v40.5h-8.93v-40.5Z"/>
        <path class="cls-2" d="M388.39,75.81h-8.46v-5.48h-.16c-1.2,2.35-2.95,4.03-5.25,5.05-2.3,1.02-4.73,1.53-7.29,1.53-3.18,0-5.97-.56-8.34-1.68-2.38-1.12-4.35-2.65-5.92-4.58s-2.74-4.22-3.52-6.85c-.78-2.64-1.17-5.47-1.17-8.5,0-3.65.49-6.81,1.49-9.48.99-2.66,2.31-4.86,3.96-6.58,1.64-1.72,3.52-2.99,5.64-3.8,2.12-.81,4.27-1.21,6.46-1.21,1.25,0,2.53.12,3.84.35,1.31.23,2.56.61,3.76,1.14s2.31,1.19,3.33,2c1.02.81,1.87,1.76,2.54,2.86h.16v-20.68h8.93v55.93ZM357.22,55.99c0,1.72.22,3.42.67,5.09.44,1.67,1.12,3.16,2.03,4.46.91,1.31,2.08,2.35,3.49,3.13,1.41.78,3.08,1.18,5.01,1.18s3.69-.42,5.13-1.25c1.44-.83,2.61-1.93,3.53-3.29.91-1.36,1.59-2.88,2.03-4.58.44-1.7.67-3.43.67-5.21,0-4.49-1.01-7.99-3.02-10.5-2.01-2.51-4.74-3.76-8.19-3.76-2.09,0-3.85.43-5.29,1.29-1.44.86-2.61,1.99-3.52,3.37-.91,1.38-1.57,2.95-1.96,4.7s-.59,3.54-.59,5.36Z"/>
        <path class="cls-2" d="M401.75,57.87c0,1.57.22,3.08.67,4.54.44,1.46,1.11,2.74,2,3.84.89,1.1,2.01,1.97,3.37,2.62,1.36.65,2.98.98,4.86.98,2.61,0,4.71-.56,6.31-1.68,1.59-1.12,2.78-2.81,3.56-5.05h8.46c-.47,2.19-1.28,4.15-2.43,5.87-1.15,1.72-2.53,3.17-4.15,4.35s-3.43,2.06-5.44,2.66c-2.01.6-4.11.9-6.31.9-3.19,0-6.01-.52-8.46-1.57-2.46-1.04-4.53-2.51-6.23-4.39-1.7-1.88-2.97-4.12-3.84-6.74-.86-2.61-1.29-5.48-1.29-8.62,0-2.87.46-5.6,1.37-8.19s2.22-4.86,3.92-6.81c1.7-1.96,3.75-3.51,6.15-4.66,2.4-1.15,5.12-1.72,8.14-1.72,3.18,0,6.04.67,8.58,2,2.53,1.33,4.63,3.09,6.31,5.29,1.67,2.19,2.88,4.71,3.64,7.56.76,2.85.95,5.78.59,8.81h-29.77ZM422.59,51.99c-.11-1.41-.4-2.77-.9-4.07-.49-1.3-1.17-2.44-2.03-3.41-.86-.97-1.91-1.75-3.13-2.35s-2.6-.9-4.11-.9-2.99.27-4.27.82c-1.28.55-2.38,1.31-3.29,2.27-.91.97-1.65,2.1-2.19,3.41-.55,1.31-.85,2.72-.9,4.23h20.84Z"/>
      </g>
      <g>
        <path class="cls-2" d="M430.59,35.73v-.98h6.99v.98h-2.91v7.76h-1.16v-7.76h-2.91Z"/>
        <path class="cls-2" d="M440.16,34.75l2.75,7.35,2.77-7.35h1.59v8.74h-1.1v-7.27h-.02l-2.73,7.27h-.99l-2.73-7.27h-.02v7.27h-1.1v-8.74h1.59Z"/>
      </g>
      <g>
        <path class="cls-2" d="M62,47.9l24.52-32.49c.33-.44.71-.83,1.13-1.18l2.98-2.46c.51-.42.03-1.22-.58-.98l-4.23,1.71c-.88.36-1.72.81-2.49,1.35l-31.94,22.43c-2.33,1.64-5.21,2.32-8.03,1.9l-33.22-4.91c-1.39-.2-2.79-.23-4.18-.08l-5.44.6c-.65.07-.69,1-.06,1.13l3.45.74c1.53.33,3,.86,4.39,1.58l21.11,10.98c3.75,1.95,4.84,6.8,2.3,10.17l-21.41,28.34c-.94,1.24-2.08,2.32-3.38,3.18l-3.28,2.18c-.76.51-.22,1.69.66,1.44l5.05-1.44c1.56-.44,3.01-1.2,4.27-2.21l26.39-21.29c3-2.42,7.44-1.73,9.56,1.49l18.25,27.64c.87,1.32,1.99,2.47,3.29,3.37l2.58,1.8c1.11.77,2.46-.58,1.68-1.69l-1.23-1.75c-.9-1.28-1.6-2.7-2.05-4.2l-11.68-38.42c-.93-3.07-.34-6.39,1.59-8.95Z"/>
        <circle class="cls-2" cx="47.81" cy="22.64" r="9.49"/>
        <path class="cls-2" d="M84.94,1.55l-.95-1.07c-.32-.36-.89.05-.64.47l2.98,5.02c1.54,2.59,5.13,2.98,7.19.78l4.92-5.28c.68-.73-.21-1.85-1.08-1.34l-4.51,2.65c-2.59,1.52-5.9,1.01-7.91-1.23Z"/>
      </g>
    </g>
  </g>
</svg>